:version 1.10
:name ASF
:units
  mass 1
  length 1
  angle deg
:documentation
  ASF file generated by Kaydara
:root
  axis xyz
  order  tx ty tz rx ry rz
  position 0 0 0
  orientation 0 0 0
:bonedata
  begin
    id 1
    name RightUpLegDummy
    direction -0.718183 -0.695806 0.00816078
    length 4.904
    axis 0 0 0 xyz
  end
  begin
    id 2
    name RightUpLeg
    direction -0.0736652 -0.994202 0.0783343
    length 17.4976
    axis -2.72909 -3.00389 -4.00133 xyz
    dof rx ry rz
  end
  begin
    id 3
    name RightLeg
    direction -0.0389037 -0.994596 -0.0962598
    length 16.5821
    axis 3.95836 -18.5909 -4.46993 xyz
    dof rx ry rz
  end
  begin
    id 4
    name RightFoot
    direction -0.311643 -0.412678 0.855906
    length 3.77069
    axis -1.99483 -18.8351 -3.27644 xyz
    dof rx ry rz
  end
  begin
    id 5
    name RightToes
    direction -0.317852 0.0389852 0.947339
    length 3.85082
    axis -2.00228 -18.1713 -3.25211 xyz
    dof rx ry rz
  end
  begin
    id 6
    name SpineDummy
    direction 8.3039e-015 1 4.44677e-016
    length 4.6813
    axis 0 0 0 xyz
  end
  begin
    id 7
    name Spine
    direction -0.000262373 0.999988 0.00493267
    length 10.1015
    axis -0.00246081 0.00062579 0.0150362 xyz
    dof rx ry rz
  end
  begin
    id 8
    name Spine1
    direction 0 0 0
    length 0
    axis -0.00349562 0.000650293 0.0196666 xyz
    dof rx ry rz
  end
  begin
    id 9
    name HEadDummy
    direction -0.000343232 0.999999 0.00123745
    length 3.43865
    axis -0.00349562 0.000650293 0.0196666 xyz
  end
  begin
    id 10
    name HEad
    direction -0.0461221 0.980933 0.188796
    length 5.12695
    axis -0.00351404 -7.04812 0.0199272 xyz
    dof rx ry rz
  end
  begin
    id 11
    name LeftShoulder1Dummy
    direction 0.998904 -0.0399089 -0.0244534
    length 3.5433
    axis -0.00349562 0.000650293 0.0196666 xyz
  end
  begin
    id 12
    name LeftShoulder1
    direction 0.99951 1.64443e-005 0.0312999
    length 4.05031
    axis -0.00349562 0.000650293 0.0196666 xyz
    dof rx ry rz
  end
  begin
    id 13
    name LeftArm
    direction 0.984791 0.0515299 0.165927
    length 12.9126
    axis -64.823 -10.7743 5.20463 xyz
    dof rx ry rz
  end
  begin
    id 14
    name LeftForeArm
    direction 0.984968 0.0534808 0.16425
    length 10.8596
    axis -30.0462 -7.70601 1.87451 xyz
    dof rx ry rz
  end
  begin
    id 15
    name LeftHand
    direction 0.975871 0.0289682 0.216418
    length 6.62295
    axis -20.1348 -6.98077 1.86072 xyz
    dof rx ry rz
  end
  begin
    id 16
    name RightShoulderDummy
    direction -0.998877 -0.0405946 -0.0244307
    length 3.5433
    axis -0.00349562 0.000650293 0.0196666 xyz
  end
  begin
    id 17
    name RightShoulder
    direction -0.998933 -0.0249743 -0.0388558
    length 4.05031
    axis -0.0205316 -4.02113 1.41395 xyz
    dof rx ry rz
  end
  begin
    id 18
    name RightArm
    direction -0.997559 0.068664 0.0127103
    length 12.9638
    axis -67.3882 1.84188 -6.15987 xyz
    dof rx ry rz
  end
  begin
    id 19
    name RightForeArm
    direction -0.991508 0.0912848 0.0926241
    length 10.8312
    axis -22.1975 3.41087 -4.28711 xyz
    dof rx ry rz
  end
  begin
    id 20
    name RightHand
    direction -0.989262 0.0600788 0.133232
    length 6.57864
    axis -12.2911 2.17515 -4.39675 xyz
    dof rx ry rz
  end
  begin
    id 21
    name LeftUpLegDummy
    direction 0.718183 -0.695806 0.00816078
    length 4.904
    axis 0 0 0 xyz
  end
  begin
    id 22
    name LeftUpLeg
    direction 0.0831398 -0.99469 0.0606531
    length 17.4976
    axis -1.71016 2.29552 4.63832 xyz
    dof rx ry rz
  end
  begin
    id 23
    name LeftLeg
    direction 0.0498442 -0.991778 -0.117862
    length 16.5821
    axis 5.13757 15.5727 5.13348 xyz
    dof rx ry rz
  end
  begin
    id 24
    name LeftFoot
    direction 0.269026 -0.433896 0.85986
    length 3.77069
    axis -0.576502 15.6961 4.10267 xyz
    dof rx ry rz
  end
  begin
    id 25
    name LeftToes
    direction 0.277311 0.0251143 0.960452
    length 3.85048
    axis -0.576502 15.6961 4.10267 xyz
    dof rx ry rz
  end
:hierarchy
  begin
    root RightUpLegDummy SpineDummy LeftUpLegDummy
    RightUpLegDummy RightUpLeg
    RightUpLeg RightLeg
    RightLeg RightFoot
    RightFoot RightToes
    SpineDummy Spine
    Spine Spine1
    Spine1 HEadDummy LeftShoulder1Dummy RightShoulderDummy
    HEadDummy HEad
    LeftShoulder1Dummy LeftShoulder1
    LeftShoulder1 LeftArm
    LeftArm LeftForeArm
    LeftForeArm LeftHand
    RightShoulderDummy RightShoulder
    RightShoulder RightArm
    RightArm RightForeArm
    RightForeArm RightHand
    LeftUpLegDummy LeftUpLeg
    LeftUpLeg LeftLeg
    LeftLeg LeftFoot
    LeftFoot LeftToes
  end

:SAMPLES-PER-SECOND 30
:FULLY-SPECIFIED
:DEGREES
46
root  3.10695 31.5197 -86.2307 31.0189 -22.6608 -11.087
RightUpLeg  -71.0741 -2.61849 27.6524
RightLeg  63.203 16.7152 1.10816
RightFoot  -17.2937 -0.386544 -12.3769
RightToes  5.82077e-011 -3.18055e-015 -2.98177e-016
Spine  38.7666 0.354629 6.39585
Spine1  5.95473 0.157905 0.351734
HEad  -13.566 10.3358 -5.86922
LeftShoulder1  -3.88251e-019 9.70628e-020 -3.87848e-018
LeftArm  -9.2969 6.9199 -55.855
LeftForeArm  12.266 -8.41859 -2.63573
LeftHand  -1.35367 -6.38229 14.0184
RightShoulder  3.49477 8.40481 16.8667
RightArm  7.69399 13.1701 61.0582
RightForeArm  22.9073 13.9807 -4.93381
RightHand  -1.14867 5.05068 -12.7003
LeftUpLeg  -61.4954 18.3692 -0.559361
LeftLeg  77.7252 -10.5883 21.5182
LeftFoot  -28.4281 -3.00927 -21.5174
LeftToes  9.37148e-011 4.50685e-012 -4.11107e-011
47
root  3.2265 30.4898 -86.2098 32.2811 -22.7147 -12.3838
RightUpLeg  -74.5675 -1.61764 29.1608
RightLeg  67.8204 16.2384 0.252599
RightFoot  -18.6646 -0.566591 -13.1343
RightToes  5.82077e-011 -3.18055e-015 -2.98177e-016
Spine  39.2914 0.40266 6.30166
Spine1  6.76599 0.20184 -0.153876
HEad  -14.311 11.175 -5.49051
LeftShoulder1  -3.88251e-019 9.70628e-020 -3.87848e-018
LeftArm  -9.59016 1.62405 -53.8914
LeftForeArm  10.6473 -7.39419 -1.821
LeftHand  -1.42238 -5.93956 15.2824
RightShoulder  3.0739 8.07827 14.6887
RightArm  7.48301 17.3662 63.5804
RightForeArm  26.0595 12.4572 -4.95615
RightHand  -1.10461 5.24871 -12.0035
LeftUpLeg  -64.2608 18.6748 0.399585
LeftLeg  82.4139 -12.3558 21.3584
LeftFoot  -30.9949 -3.65753 -22.3898
LeftToes  9.37148e-011 4.50685e-012 -4.11107e-011
48
root  3.35729 29.419 -86.1597 33.2226 -22.9926 -13.6399
RightUpLeg  -77.7978 -0.455785 30.4119
RightLeg  72.4694 15.8395 -0.911653
RightFoot  -19.9385 -0.73355 -13.553
RightToes  5.82077e-011 -3.18055e-015 -2.98177e-016
Spine  40.1542 0.287019 5.88911
Spine1  6.85238 0.172278 -1.03603
HEad  -14.8865 12.4501 -5.12422
LeftShoulder1  -3.88251e-019 9.70628e-020 -3.87848e-018
LeftArm  -9.77783 -2.90204 -51.3246
LeftForeArm  8.53438 -6.87078 -1.15594
LeftHand  -1.62423 -5.69983 17.7442
RightShoulder  2.7619 7.88965 12.9143
RightArm  8.14434 20.8365 65.9032
RightForeArm  28.4358 11.7369 -5.37365
RightHand  -1.10404 5.73016 -11.498
LeftUpLeg  -66.4035 19.0009 1.25814
LeftLeg  86.9193 -14.0151 21.421
LeftFoot  -33.8136 -4.44184 -23.4578
LeftToes  9.37148e-011 4.50685e-012 -4.11107e-011
49
root  3.49101 28.3224 -86.0946 33.5924 -23.0103 -14.9986
RightUpLeg  -80.5242 0.433703 31.6502
RightLeg  77.1701 15.6239 -2.1854
RightFoot  -21.1978 -0.868239 -13.3993
RightToes  5.82077e-011 -3.18055e-015 -2.98177e-016
Spine  42.0302 -0.0124399 5.40002
Spine1  5.78969 -0.0468584 -1.60272
HEad  -15.2775 14.1011 -5.00573
LeftShoulder1  -3.88251e-019 9.70628e-020 -3.87848e-018
LeftArm  -9.92595 -6.63999 -48.4466
LeftForeArm  6.39459 -6.53754 -0.604557
LeftHand  -1.92551 -5.70659 20.9306
RightShoulder  2.41987 7.47587 11.212
RightArm  9.52382 23.7037 68.1836
RightForeArm  29.6882 12.0703 -5.90579
RightHand  -1.10233 6.36519 -10.8837
LeftUpLeg  -67.954 19.2211 2.43027
LeftLeg  91.4658 -15.7074 21.564
LeftFoot  -36.4606 -5.25973 -24.5761
LeftToes  9.37148e-011 4.50685e-012 -4.11107e-011
50
root  3.62977 27.2103 -86.0129 33.4565 -22.5646 -16.7393
RightUpLeg  -82.4972 0.923273 33.197
RightLeg  81.7096 15.6281 -3.34908
RightFoot  -22.7024 -0.994459 -12.8491
RightToes  5.82077e-011 -3.18055e-015 -2.98177e-016
Spine  43.9416 -0.503326 5.25063
Spine1  5.18131 -0.365436 -1.78863
HEad  -15.7829 15.9296 -5.12056
LeftShoulder1  -3.88251e-019 9.70628e-020 -3.87848e-018
LeftArm  -10.1922 -10.0842 -45.2827
LeftForeArm  4.1957 -6.17207 0.0185671
LeftHand  -2.10833 -5.87459 22.5148
RightShoulder  2.10575 7.09013 9.56357
RightArm  11.6632 26.5543 70.0705
RightForeArm  29.1887 13.409 -6.60402
RightHand  -1.09336 6.88434 -10.3553
LeftUpLeg  -68.8716 19.4598 4.33456
LeftLeg  96.2194 -17.4456 21.3944
LeftFoot  -39.0195 -6.09045 -25.5713
LeftToes  9.37148e-011 4.50685e-012 -4.11107e-011
51
root  3.77093 26.0684 -85.897 33.3806 -22.0877 -18.4656
RightUpLeg  -84.3645 1.48867 34.5736
RightLeg  86.0305 15.8059 -4.44355
RightFoot  -24.584 -1.14114 -12.2491
RightToes  5.82077e-011 -3.18055e-015 -2.98177e-016
Spine  45.4182 -0.816416 5.02077
Spine1  4.75602 -0.58165 -1.6821
HEad  -16.0798 17.4449 -5.22628
LeftShoulder1  -3.88251e-019 9.70628e-020 -3.87848e-018
LeftArm  -10.3504 -13.3325 -42.3199
LeftForeArm  2.50376 -5.30187 0.576528
LeftHand  -2.10292 -6.0182 22.1704
RightShoulder  1.74166 6.68905 7.47737
RightArm  14.2286 28.9721 71.0844
RightForeArm  26.3479 15.5717 -7.81445
RightHand  -1.12886 7.03337 -10.5636
LeftUpLeg  -69.6094 19.7646 6.25057
LeftLeg  101.15 -19.0923 20.7084
LeftFoot  -41.718 -7.01447 -26.5745
LeftToes  9.37148e-011 4.50685e-012 -4.11107e-011
52
root  3.92137 24.9111 -85.7301 33.611 -21.7786 -19.9377
RightUpLeg  -86.5415 2.33871 35.51
RightLeg  90.1935 16.1387 -5.58673
RightFoot  -26.5737 -1.27424 -11.6119
RightToes  5.82077e-011 -3.18055e-015 -2.98177e-016
Spine  46.4615 -0.93533 4.60029
Spine1  4.06106 -0.70084 -1.56663
HEad  -16.0913 18.6732 -5.13307
LeftShoulder1  -3.88251e-019 9.70628e-020 -3.87848e-018
LeftArm  -10.3245 -16.2588 -40.0151
LeftForeArm  2.02316 -3.50507 0.960145
LeftHand  -2.16573 -6.04364 22.745
RightShoulder  1.34609 6.25402 5.07091
RightArm  16.6635 30.6652 71.2689
RightForeArm  21.9681 18.0611 -9.58802
RightHand  -1.23849 6.95417 -11.6382
LeftUpLeg  -70.4512 20.0585 7.73115
LeftLeg  106.236 -20.5484 19.5663
LeftFoot  -44.3456 -7.98756 -27.6049
LeftToes  9.37148e-011 4.50685e-012 -4.11107e-011
53
root  4.09243 23.7857 -85.5165 33.7973 -21.5353 -21.3642
RightUpLeg  -88.6714 3.21785 36.2115
RightLeg  94.251 16.6293 -6.71803
RightFoot  -28.2314 -1.3133 -10.6625
RightToes  5.82077e-011 -3.18055e-015 -2.98177e-016
Spine  47.5329 -1.07678 4.21689
Spine1  3.15628 -0.812066 -1.56269
HEad  -16.1645 19.9718 -4.98059
LeftShoulder1  -3.88251e-019 9.70628e-020 -3.87848e-018
LeftArm  -10.6512 -18.5881 -38.1421
LeftForeArm  2.24688 -1.43611 1.43312
LeftHand  -2.39009 -5.98548 25.1491
RightShoulder  1.03601 5.81861 3.17497
RightArm  18.6222 32.1304 71.2411
RightForeArm  18.1808 20.4069 -11.4031
RightHand  -1.37788 7.0636 -12.8134
LeftUpLeg  -71.1526 20.3645 9.04355
LeftLeg  111.466 -21.8519 18.2498
LeftFoot  -46.3575 -8.82595 -28.5534
LeftToes  9.37148e-011 4.50685e-012 -4.11107e-011
54
root  4.27216 22.7211 -85.2622 33.6334 -21.5673 -22.5906
RightUpLeg  -90.4935 3.99857 36.513
RightLeg  98.2434 17.2503 -7.68409
RightFoot  -29.506 -1.2465 -9.38905
RightToes  5.82077e-011 -3.18055e-015 -2.98177e-016
Spine  48.678 -1.21304 3.61305
Spine1  2.44847 -0.943867 -1.76738
HEad  -16.4849 21.3299 -4.8647
LeftShoulder1  -3.88251e-019 9.70628e-020 -3.87848e-018
LeftArm  -11.4955 -20.2792 -36.1383
LeftForeArm  1.76763 -0.161833 2.07367
LeftHand  -2.44664 -5.87521 25.9557
RightShoulder  0.846374 5.40089 2.10641
RightArm  19.8401 33.8664 71.4859
RightForeArm  16.441 22.2615 -12.6744
RightHand  -1.47229 7.40301 -13.3263
LeftUpLeg  -71.3961 20.8022 9.9477
LeftLeg  116.653 -23.0662 17.0242
LeftFoot  -47.6297 -9.54309 -29.6472
LeftToes  9.37148e-011 4.50685e-012 -4.11107e-011
55
root  4.45106 21.7061 -84.954 33.3257 -21.7691 -23.4643
RightUpLeg  -92.1572 4.5721 36.4362
RightLeg  102.091 17.9443 -8.43251
RightFoot  -30.8739 -1.15029 -8.07038
RightToes  5.82077e-011 -3.18055e-015 -2.98177e-016
Spine  49.5792 -1.48647 2.95162
Spine1  1.97819 -1.14133 -2.50815
HEad  -16.8006 22.4681 -4.53099
LeftShoulder1  -3.88251e-019 9.70628e-020 -3.87848e-018
LeftArm  -11.9404 -21.5524 -34.1853
LeftForeArm  0.0621569 0.360436 2.35486
LeftHand  -2.23859 -5.75866 24.1248
RightShoulder  0.6684 4.97981 1.06856
RightArm  19.8807 35.4901 72.0188
RightForeArm  16.3975 23.3902 -13.2826
RightHand  -1.4871 7.58599 -13.2726
LeftUpLeg  -71.2462 21.1856 10.2778
LeftLeg  121.625 -24.1442 15.8499
LeftFoot  -48.6367 -10.3613 -31.1771
LeftToes  9.37148e-011 4.50685e-012 -4.11107e-011
